<?xml version="1.0" encoding="UTF-8" standalone="no"?>
<!-- Created with Inkscape (http://www.inkscape.org/) -->

<svg
   xmlns:dc="http://purl.org/dc/elements/1.1/"
   xmlns:cc="http://creativecommons.org/ns#"
   xmlns:rdf="http://www.w3.org/1999/02/22-rdf-syntax-ns#"
   xmlns:svg="http://www.w3.org/2000/svg"
   xmlns="http://www.w3.org/2000/svg"
   xmlns:sodipodi="http://sodipodi.sourceforge.net/DTD/sodipodi-0.dtd"
   xmlns:inkscape="http://www.inkscape.org/namespaces/inkscape"
   width="513.09515"
   height="362.41147"
   viewBox="0 0 481.02668 339.76073"
   id="svg2"
   version="1.1"
   inkscape:version="0.91 r13725"
   sodipodi:docname="background.svg"
   inkscape:export-filename="D:\OneDrive\Projects-Active\Bible By Example\Logo\Logo - Main.png"
   inkscape:export-xdpi="93.350662"
   inkscape:export-ydpi="93.350662">
  <defs
     id="defs4">
    <linearGradient
       inkscape:collect="always"
       x1="301.09"
       y1="293.04001"
       gradientTransform="translate(0,6)"
       x2="357.07999"
       gradientUnits="userSpaceOnUse"
       y2="293.04001"
       id="linearGradient4052">
      <stop
         offset="0"
         style="stop-color:#f1d291"
         id="stop4048" />
      <stop
         offset="1"
         style="stop-color:#b37218"
         id="stop4050" />
    </linearGradient>
    <linearGradient
       inkscape:collect="always"
       x1="355.91"
       y1="298.97"
       x2="411.39001"
       gradientUnits="userSpaceOnUse"
       y2="298.97"
       id="linearGradient4060">
      <stop
         offset="0"
         style="stop-color:#b37218"
         id="stop4056" />
      <stop
         offset="1"
         style="stop-color:#f1d291"
         id="stop4058" />
    </linearGradient>
  </defs>
  <sodipodi:namedview
     id="base"
     pagecolor="#ffffff"
     bordercolor="#666666"
     borderopacity="1.0"
     inkscape:pageopacity="0.0"
     inkscape:pageshadow="2"
     inkscape:zoom="1.2695312"
     inkscape:cx="197.55358"
     inkscape:cy="156.10545"
     inkscape:document-units="px"
     inkscape:current-layer="layer1"
     showgrid="false"
     units="px"
     inkscape:window-width="1368"
     inkscape:window-height="849"
     inkscape:window-x="-8"
     inkscape:window-y="-8"
     inkscape:window-maximized="1"
     fit-margin-top="0"
     fit-margin-left="0"
     fit-margin-right="0"
     fit-margin-bottom="0"
     showborder="false" />
  <metadata
     id="metadata7">
    <rdf:RDF>
      <cc:Work
         rdf:about="">
        <dc:format>image/svg+xml</dc:format>
        <dc:type
           rdf:resource="http://purl.org/dc/dcmitype/StillImage" />
        <dc:title></dc:title>
      </cc:Work>
    </rdf:RDF>
  </metadata>
  <g
     inkscape:label="Layer 1"
     inkscape:groupmode="layer"
     id="layer1"
     transform="translate(-15.486652,-642.32605)">
    <g
       id="g4919"
       transform="matrix(1.2070875,0,0,1.2070875,-30.194874,-123.40046)"
       inkscape:export-xdpi="5.9871936"
       inkscape:export-ydpi="5.9871936">
      <g
         transform="translate(-120.19971,473.74039)"
         inkscape:label="cover"
         id="layer1-1">
        <text
           xml:space="preserve"
           x="467.58707"
           y="318.69531"
           style="line-height:0%;font-family:Arial;letter-spacing:0px;word-spacing:0px;fill:#ffffff"
           id="text3331"
           sodipodi:linespacing="0%"><tspan
             sodipodi:role="line"
             style="font-style:italic;font-size:28px;line-height:1.25;font-family:Georgia;fill:#ffffff"
             x="467.58707"
             y="318.69531"
             id="tspan3333"> </tspan></text>
        <path
           d="m 171.61,175.48 370.95,0 c 4.4521,0 7.9642,3.5854 8.0364,8.0377 l 4,246.7 c 0.0722,4.4523 -3.5842,8.0377 -8.0364,8.0377 l -162.34,0 c -1.6206,-1.392 -7.0225,-1.2357 -8.0368,0 -0.81906,4.7987 -37.519,4.4789 -38.102,0 -0.50548,-0.76554 -4.5539,-1.0692 -5.8646,0 l -164.6,0 c -4.4522,0 -8.1086,-3.5854 -8.0364,-8.0377 l 4,-246.7 c 0.0722,-4.4523 3.5842,-8.0377 8.0364,-8.0377 z"
           style="fill:#a23f08;stroke:#000000;stroke-width:0.70866001"
           sodipodi:nodetypes="sssssccccssss"
           inkscape:connector-curvature="0"
           id="rect3819" />
      </g>
      <g
         transform="translate(-120.19971,473.74039)"
         inkscape:label="brasscorners"
         id="layer3">
        <path
           inkscape:connector-curvature="0"
           style="fill:#a5591d;stroke:#000000;stroke-width:0.53149998;stroke-linecap:round"
           sodipodi:nodetypes="cscccccscsc"
           d="m 547.65,172.28 -34.754,0.97159 c -1.5753,0.044 -2.8081,1.3479 -2.7641,2.9235 -0.34664,3.7652 33.052,5.039 33.052,5.039 0,0 0.48856,18.492 0.46161,25.198 0.58391,2.8391 2.2089,3.0477 3.7268,3.5269 1.2179,4.8516 1.1035,4.3782 4.3033,4.2889 0.28477,-0.012 0.75957,-0.6344 0.75071,-0.94073 -0.37076,-12.754 -0.71316,-25.51 -1.0697,-38.265 -0.044,-1.5756 -1.3477,-2.8085 -2.9231,-2.7645 z"
           id="path3864" />
        <path
           d="m 547.65,172.28 -34.754,0.97159 c -1.5754,0.044 -2.8081,1.3479 -2.7641,2.9235 -0.34665,3.7652 33.052,5.039 33.052,5.039 0,0 0.48856,18.492 0.46161,25.198 0.5839,2.8391 2.2089,3.0477 3.7268,3.5269 1.2179,4.8516 1.1035,4.3782 4.3033,4.2889 0.28477,-0.012 0.75956,-0.6344 0.75072,-0.94073 -0.37077,-12.754 -0.71316,-25.51 -1.0697,-38.265 -0.044,-1.5756 -1.3477,-2.8085 -2.9231,-2.7645 z"
           style="fill:#a5591d"
           sodipodi:nodetypes="cscccccscsc"
           inkscape:connector-curvature="0"
           id="path3866" />
        <path
           d="m 547.65,172.28 -23.176,0.55129 c -3.7391,3.7846 13.973,6.1172 17.716,6.4838 1.4286,0.20684 2.7674,1.5192 3.2114,3.0719 0.2891,13.536 0.12412,22.157 1.8124,21.882 1.2179,4.8516 1.1035,4.3782 4.3033,4.2889 0.28477,-0.012 0.75956,-0.6344 0.75072,-0.94073 -0.37077,-12.754 -0.55465,-19.84 -0.91122,-32.595 -0.044,-1.5756 -1.3477,-2.8085 -2.9231,-2.7645 z"
           style="fill:#d3a325"
           sodipodi:nodetypes="ccccccscsc"
           inkscape:connector-curvature="0"
           id="path3868" />
        <path
           inkscape:connector-curvature="0"
           style="fill:#f1dd48"
           sodipodi:nodetypes="csccccscsc"
           d="m 547.65,172.28 -10.54,0.29465 c -1.5752,0.044 -2.808,1.3479 -2.7639,2.9235 0.0758,0.93529 3.5413,1.4078 7.9677,1.806 3.0344,1.111 3.9751,2.9251 4.7652,5.0634 1.3495,6.1034 0.72244,7.845 3.9222,7.7558 0.28477,-0.012 0.75956,-0.63439 0.75072,-0.94072 -0.37077,-12.754 -0.0393,-1.4051 -0.39586,-14.16 -0.044,-1.5756 -1.3477,-2.8085 -2.9231,-2.7645 z"
           id="path3870" />
        <path
           d="m 547.65,172.28 -4.2884,0.11989 c -5.9964,0.0245 3.1462,4.3642 3.6735,4.8987 0.80611,0.81738 4.5968,8.4159 4.529,5.157 -0.37077,-12.754 0.14878,5.3219 -0.2078,-7.433 -0.044,-1.5756 -1.3477,-2.8085 -2.9231,-2.7645 z"
           style="fill:#fffea3"
           sodipodi:nodetypes="ccsccsc"
           inkscape:connector-curvature="0"
           id="path3872" />
        <path
           d="m 166.93,172.28 34.754,0.96278 c 1.5753,0.0436 2.8084,1.3472 2.7647,2.9228 0.34768,3.7651 -33.05,5.0474 -33.05,5.0474 0,0 -0.48338,18.492 -0.45515,25.198 -0.58315,2.8393 -2.2082,3.0482 -3.7259,3.5279 -1.2167,4.8519 -1.1024,4.3784 -4.3021,4.29 -0.28477,-0.0119 -0.75972,-0.6342 -0.75093,-0.94054 0.36614,-12.754 0.71269,-25.51 1.066,-38.265 0.0437,-1.5756 1.347,-2.8089 2.9223,-2.7652 z"
           style="fill:#a5591d;stroke:#000000;stroke-width:0.53149998;stroke-linecap:round"
           sodipodi:nodetypes="cscccccscsc"
           inkscape:connector-curvature="0"
           id="rect7186" />
        <path
           inkscape:connector-curvature="0"
           style="fill:#a5591d"
           sodipodi:nodetypes="cscccccscsc"
           d="m 166.93,172.28 34.754,0.96278 c 1.5753,0.0436 2.8084,1.3472 2.7647,2.9228 0.34768,3.7651 -33.05,5.0474 -33.05,5.0474 0,0 -0.48338,18.492 -0.45515,25.198 -0.58314,2.8393 -2.2081,3.0482 -3.7259,3.5279 -1.2167,4.8519 -1.1024,4.3784 -4.3021,4.29 -0.28477,-0.0119 -0.75972,-0.6342 -0.75093,-0.94054 0.36614,-12.754 0.71269,-25.51 1.066,-38.265 0.0437,-1.5756 1.347,-2.8089 2.9223,-2.7652 z"
           id="path3777" />
        <path
           inkscape:connector-curvature="0"
           style="fill:#d3a325"
           sodipodi:nodetypes="ccccccscsc"
           d="m 166.93,172.28 23.176,0.54541 c 3.7401,3.7837 -13.971,6.1208 -17.714,6.4883 -1.4285,0.20721 -2.767,1.5199 -3.2105,3.0727 -0.28566,13.537 -0.11857,22.157 -1.8069,21.882 -1.2167,4.8519 -1.1024,4.3784 -4.3021,4.29 -0.28477,-0.0119 -0.75972,-0.63421 -0.75092,-0.94053 0.36613,-12.754 0.5556,-19.84 0.90895,-32.595 0.0436,-1.5756 1.347,-2.8089 2.9223,-2.7652 z"
           id="path3003" />
        <path
           d="m 166.93,172.28 10.54,0.29198 c 1.5753,0.0436 2.8084,1.3472 2.7647,2.9228 -0.0758,0.9353 -3.541,1.4087 -7.9673,1.808 -3.0342,1.1118 -3.9743,2.9261 -4.764,5.0646 -1.3479,6.1038 -0.72037,7.8452 -3.9201,7.7568 -0.28477,-0.0119 -0.75972,-0.63421 -0.75092,-0.94054 0.36613,-12.754 0.0449,-1.405 0.39826,-14.16 0.0437,-1.5756 1.347,-2.8089 2.9223,-2.7652 z"
           style="fill:#f1dd48"
           sodipodi:nodetypes="csccccscsc"
           inkscape:connector-curvature="0"
           id="path3005" />
        <path
           inkscape:connector-curvature="0"
           style="fill:#fffea3"
           sodipodi:nodetypes="ccsccsc"
           d="m 166.93,172.28 4.2884,0.1188 c 5.9965,0.023 -3.1451,4.365 -3.6722,4.8996 -0.80594,0.81758 -4.5948,8.4171 -4.5276,5.1582 0.36614,-12.754 -0.14143,5.3221 0.21191,-7.4329 0.0437,-1.5756 1.347,-2.8089 2.9223,-2.7652 z"
           id="path3007" />
        <path
           inkscape:connector-curvature="0"
           style="fill:#a5591d;stroke:#000000;stroke-width:0.53149998;stroke-linecap:round"
           sodipodi:nodetypes="cscccccscsc"
           d="m 158.31,434.83 0,-34.773 c 0,-1.5762 1.2687,-2.8451 2.8446,-2.8451 3.7534,-0.45188 5.9597,32.903 5.9597,32.903 0,0 14.211,2.9207 20.912,2.7068 1.2402,0.28176 3.6085,0.62061 5.0758,0.78909 4.883,1.082 7.2444,0.86959 7.2446,4.0711 -0.004,0.28504 -0.61282,0.77713 -0.91922,0.77681 -12.758,-0.0128 -25.516,-0.006 -38.273,-0.006 -1.5759,0 -2.8446,-1.2689 -2.8446,-2.8451 z"
           id="path3779" />
        <path
           d="m 158.31,434.83 0,-34.773 c 0,-1.5762 1.2687,-2.8451 2.8446,-2.8451 3.7534,-0.45188 5.9597,32.903 5.9597,32.903 0,0 9.0919,-0.0289 15.793,-0.24286 0.96198,1.2835 4.9439,1.6224 5.4654,3.1265 6.6079,0.91508 12.475,1.0922 11.974,4.6833 -0.004,0.28504 -0.61282,0.77713 -0.91923,0.77682 -12.758,-0.0128 -25.516,-0.006 -38.273,-0.006 -1.5759,0 -2.8446,-1.2689 -2.8446,-2.8451 z"
           style="fill:#a5591d"
           sodipodi:nodetypes="cscccccscsc"
           inkscape:connector-curvature="0"
           id="path3781" />
        <path
           d="m 158.31,434.83 -0.0966,-29.953 c 3.6781,-3.8441 6.5042,20.565 6.9752,24.298 0.24664,1.4224 1.5957,2.7243 3.1599,3.1248 13.537,-0.0893 18.296,-0.49515 18.068,1.2004 4.8829,1.082 4.4065,0.98089 4.4068,4.1824 -0.004,0.28504 -0.61282,0.77713 -0.91922,0.77682 -12.758,-0.0128 -15.991,-0.006 -28.749,-0.006 -1.5759,0 -2.8446,-1.2689 -2.8446,-2.8451 z"
           style="fill:#d3a325"
           sodipodi:nodetypes="ccccccscsc"
           inkscape:connector-curvature="0"
           id="path3783" />
        <path
           inkscape:connector-curvature="0"
           style="fill:#f1dd48"
           sodipodi:nodetypes="csccccscsc"
           d="m 158.31,434.83 0,-12.801 c 0,-1.5762 1.2687,-2.8451 2.8446,-2.8451 0.93687,0.0499 1.5059,5.7568 2.0276,10.171 1.1952,3.0028 2.0009,3.8924 7.355,4.6227 6.1377,1.1786 7.8608,0.50293 7.861,3.7044 -0.004,0.28504 -0.61282,0.77713 -0.91922,0.77682 -12.758,-0.0128 -3.5667,-0.006 -16.324,-0.006 -1.5759,0 -2.8446,-1.2689 -2.8446,-2.8451 z"
           id="path3785" />
        <path
           d="m 158.31,434.83 0,-4.2908 c -0.14305,-5.9959 4.4496,3.0236 4.9986,3.5357 0.83944,0.78312 8.5396,4.3607 5.2807,4.3838 -12.758,-0.0128 5.3231,-0.006 -7.4346,-0.006 -1.5759,0 -2.8446,-1.2689 -2.8446,-2.8451 z"
           style="fill:#fffea3"
           sodipodi:nodetypes="ccsccsc"
           inkscape:connector-curvature="0"
           id="path3787" />
        <path
           d="m 158.22,407.25 0,5.5097 c 0,0.8235 0.95641,1.4864 2.1444,1.4864 0.85196,-3.0001 -2.0172,-10.323 -2.1444,-7.4026 z"
           style="fill:#f1dd48"
           sodipodi:nodetypes="csccc"
           inkscape:connector-curvature="0"
           id="path3801" />
        <path
           d="m 556.28,434.83 0,-34.773 c 0,-1.5762 -1.2687,-2.8451 -2.8447,-2.8451 -3.7534,-0.45188 -5.9596,32.903 -5.9596,32.903 0,0 -14.211,2.9207 -20.912,2.7068 -1.2401,0.28176 -3.6085,0.62061 -5.0758,0.78909 -4.8829,1.082 -7.2443,0.86959 -7.2445,4.0711 0,0.28504 0.61281,0.77713 0.91921,0.77681 12.757,-0.0128 25.516,-0.006 38.273,-0.006 1.576,0 2.8447,-1.2689 2.8447,-2.8451 z"
           style="fill:#a5591d;stroke:#000000;stroke-width:0.53149998;stroke-linecap:round"
           sodipodi:nodetypes="cscccccscsc"
           inkscape:connector-curvature="0"
           id="path3874" />
        <path
           inkscape:connector-curvature="0"
           style="fill:#a5591d"
           sodipodi:nodetypes="cscccccscsc"
           d="m 556.28,434.83 0,-34.773 c 0,-1.5762 -1.2687,-2.8451 -2.8447,-2.8451 -3.7534,-0.45188 -5.9596,32.903 -5.9596,32.903 0,0 -9.0918,-0.0289 -15.793,-0.24286 -0.96188,1.2835 -4.9438,1.6224 -5.4653,3.1265 -6.6079,0.91508 -12.475,1.0922 -11.974,4.6833 0,0.28504 0.6128,0.77713 0.91921,0.77682 12.757,-0.0128 25.516,-0.006 38.273,-0.006 1.576,0 2.8447,-1.2689 2.8447,-2.8451 z"
           id="path3876" />
        <path
           inkscape:connector-curvature="0"
           style="fill:#d3a325"
           sodipodi:nodetypes="ccccccscsc"
           d="m 556.28,434.83 0.0964,-29.953 c -3.6781,-3.8441 -6.5042,20.565 -6.9752,24.298 -0.24657,1.4224 -1.5957,2.7243 -3.1599,3.1248 -13.537,-0.0893 -18.296,-0.49515 -18.068,1.2004 -4.8829,1.082 -4.4065,0.98089 -4.4068,4.1824 0,0.28504 0.61281,0.77713 0.91921,0.77682 12.758,-0.0128 15.991,-0.006 28.749,-0.006 1.5758,0 2.8445,-1.2689 2.8445,-2.8451 z"
           id="path3878" />
        <path
           d="m 556.28,434.83 0,-12.801 c 0,-1.5762 -1.2687,-2.8451 -2.8447,-2.8451 -0.93679,0.0499 -1.5059,5.7568 -2.0276,10.171 -1.1951,3.0028 -2.0009,3.8924 -7.3549,4.6227 -6.1377,1.1786 -7.8608,0.50293 -7.861,3.7044 0,0.28504 0.6128,0.77713 0.91921,0.77682 12.757,-0.0128 3.5667,-0.006 16.324,-0.006 1.576,0 2.8447,-1.2689 2.8447,-2.8451 z"
           style="fill:#f1dd48"
           sodipodi:nodetypes="csccccscsc"
           inkscape:connector-curvature="0"
           id="path3880" />
        <path
           inkscape:connector-curvature="0"
           style="fill:#fffea3"
           sodipodi:nodetypes="ccsccsc"
           d="m 556.28,434.83 0,-4.2908 c 0.14306,-5.9959 -4.4496,3.0236 -4.9986,3.5357 -0.83938,0.78312 -8.5397,4.3607 -5.2807,4.3838 12.758,-0.0128 -5.323,-0.006 7.4346,-0.006 1.576,0 2.8447,-1.2689 2.8447,-2.8451 z"
           id="path3882" />
        <path
           inkscape:connector-curvature="0"
           style="fill:#f1dd48"
           sodipodi:nodetypes="csccc"
           d="m 556.37,407.25 0,5.5097 c 0,0.8235 -0.9565,1.4864 -2.1444,1.4864 -0.852,-3.0001 2.0171,-10.323 2.1444,-7.4026 z"
           id="path3884" />
      </g>
      <g
         transform="translate(-120.19971,473.74039)"
         inkscape:label="pages"
         id="layer2">
        <path
           inkscape:connector-curvature="0"
           style="fill:#b37218"
           sodipodi:nodetypes="cssssssssssccsc"
           d="m 287.53,420.24 c 5.288,-0.007 27.251,0.83622 39.014,4.7863 20.893,7.0162 31.475,15.038 30.873,14.586 -3.6919,-2.7745 -8.4275,-3.78 -18.809,-5.2281 -3.876,-0.54067 -10.145,-2.7552 -11.011,-3.0914 -4.1224,-1.601 -9.1039,-1.8438 -12.501,-2.1143 -3.3155,-0.26402 -6.1164,-0.24017 -10.212,-0.4918 -3.9651,-0.2436 -8.8521,-0.46537 -12.84,-0.25387 -2.0944,0.11104 -8.1187,-0.0128 -10.219,0.0539 -1.9308,0.0613 -8.6428,-0.58391 -10.57,-0.4638 -4.7064,0.29311 -5.8947,0.14234 -10.53,0.70418 -1.8768,0.22752 -22.892,0.65588 -24.733,0.95999 -47.613,6.7767 -60.601,1.2724 -36.195,1.429 11.609,-1.4016 38.713,-10.811 87.732,-10.877 z"
           id="path3840" />
        <path
           d="m 176.21,183.46 c 40.23,1.2139 138.05,-24.812 165.91,-0.33433 l 14.365,254.98 c -0.52601,-0.40003 -0.40393,0.14207 -0.94089,-0.22191 -6.8838,-4.6662 -14.622,-6.539 -22.054,-9.9232 -2.1534,-0.9806 -7.0655,-2.0891 -9.0538,-2.9046 -3.8726,-1.5884 -8.1918,-1.5314 -12.102,-2.4725 -2.8297,-0.68102 -4.6371,-0.18436 -7.5148,-0.63801 -8.0628,-1.2711 -19.646,-0.50433 -27.601,-0.55319 -2.0974,-0.0128 -4.8799,-0.49534 -6.9797,-0.42877 -1.9308,0.0613 -3.1788,0.66569 -5.1064,0.78573 -4.7064,0.29311 -9.3956,0.74969 -14.031,1.3116 -1.8768,0.22752 -3.0623,-0.55142 -4.919,-0.29323 -2.9065,0.40419 -6.4677,1.865 -9.3096,2.3201 -5.151,0.82493 -10.18,1.7092 -15.033,2.5647 -2.8365,0.50011 -5.7831,0.47851 -8.4872,0.94133 -2.7578,0.47198 -5.2704,1.4273 -7.8671,1.8235 -8.5752,1.3083 -16.208,2.1016 -22.472,1.7071 -1.3604,-0.0856 -2.8269,-0.90983 -4.0539,-1.1144 -1.288,-0.21475 -2.3295,0.1837 -3.4606,-0.17762 -4.1405,-1.3226 -7.1968,-3.6805 -8.9218,-7.4644 l -0.68696,-4.1143 0.57701,-4.1465 -0.12689,-6.1206 -0.27815,-2.9835 0.41622,-3.1519 -0.17724,-3.9567 -0.20121,-2.8414 0.32786,-2.7863 0.1191,-5.2942 -0.0177,-2.1736 0.12519,-2.6051 0.13059,-3.5553 0.43957,-2.4132 -0.3206,-2.8734 -0.0393,-9.038 0.55826,-1.7244 -0.46956,-2.2171 0.39187,-10.597 0.28606,-2.4698 -0.16324,-2.9873 0.1722,-7.0516 0.36604,-3.903 0.10336,-6.7736 0.56559,-1.8795 -0.46554,-2.5659 0.0305,-10.423 -0.46034,-2.8975 0.90995,-3.4494 -0.16988,-8.548 0.16307,-3.1242 -0.0128,-3.5344 -0.42043,-7.6652 0.83533,-8.3065 -0.27274,-4.4978 0.4573,-3.7032 0.18421,-8.1856 0.37483,-3.2477 -0.21731,-3.7519 0.21107,-9.3794 0.18733,-2.2779 -0.0452,-4.0357 c 1.2662,-2.2674 -0.2097,-4.9615 0.16146,-7.174 l 0.41392,-2.8912 0.17427,-2.4978 -0.31959,-6.5484 c 0.007,-1.3067 0.49808,-2.9126 0.53822,-4.2185 l -0.29233,-6.7072 -0.15641,-2.7718 0.25208,-2.9804 -0.17695,-3.218 -0.23339,-3.0967 0.33307,-4.0302 -0.50513,-2.7029 0.96266,-2.3462 c -0.44424,-3.0461 3.2771,-1.5333 5.0912,-1.4763 z"
           style="fill:#b97c2c;stroke:#000000;stroke-width:0.35433"
           sodipodi:nodetypes="cccsssssssssssssssssccccccccccccccccccccccccccccccccccccccccccccccccccccccccc"
           inkscape:connector-curvature="0"
           id="path3830" />
        <path
           d="m 179.04,180.63 c 40.23,1.2139 146.73,-25.125 174.59,-0.64804 l 2.6033,258.55 c -16.525,-11.503 -42.262,-20.624 -72.223,-19.035 -2.0945,0.11104 -7.6214,-0.28441 -9.7211,-0.21785 -1.9308,0.0613 -4.8659,-0.17797 -6.7934,-0.0579 -4.7064,0.29311 -7.076,0.9606 -11.711,1.5225 -1.8768,0.22752 -7.9126,0.0813 -9.7692,0.33952 -2.9065,0.40419 -5.8351,1.865 -8.677,2.3201 -5.151,0.82493 -10.391,1.4983 -15.243,2.3538 -2.8365,0.50011 -5.7831,0.68943 -8.4872,1.1522 -2.7578,0.47198 -6.5356,1.8491 -9.1324,2.2453 -8.5752,1.3083 -12.834,0.83609 -19.098,0.4416 -1.3604,-0.0857 -2.8269,-0.90983 -4.0539,-1.1144 -1.288,-0.21475 -2.3295,0.1837 -3.4606,-0.17762 -4.1405,-1.3226 -7.1968,-3.6805 -8.9218,-7.4644 l -0.21809,-6.5158 0.277,-3.0962 -0.12704,-3.5699 0.47192,-2.2333 -0.33385,-3.9021 0.12279,-5.4571 0.39885,-2.3912 -0.27221,-3.2364 0.1191,-5.2942 0.28232,-2.3237 -0.17477,-2.4551 0.13059,-5.8058 0.73959,-2.7133 -0.62062,-2.5733 0.26079,-11.589 0.55826,-1.7244 -0.46956,-2.2171 0.24186,-10.747 0.7361,-3.07 -0.61328,-2.3871 0.34155,-15.178 0.56559,-1.8795 -0.46555,-2.566 0.18056,-8.0228 0.73976,-1.6972 -0.59018,-4.9498 0.28016,-12.449 0.91314,-3.1242 -0.7633,-3.5344 0.26489,-11.771 0.17729,-2.2472 0.007,-5.9538 0.18421,-8.1856 0.67485,-3.0976 -0.51734,-3.902 0.21108,-9.3794 1.0874,-3.6283 -0.94533,-2.6853 0.16146,-7.174 0.41392,-2.8912 -0.27577,-3.248 0.13045,-5.7982 0.0308,-2.0506 0.0574,-1.8679 0.1577,-7.0072 0.74367,-1.8716 -0.648,-2.3802 0.12308,-5.4686 0.21665,-2.0464 -0.11698,-2.3798 0.15751,-6.9996 c -0.44424,-3.0461 3.2771,-1.5333 5.0912,-1.4763 z"
           style="fill:#d7a55c;stroke:#000000;stroke-width:0.35433"
           sodipodi:nodetypes="cccsssssssssssscccccccccccccccccccccccccccccccccccccccccccccccccccccc"
           inkscape:connector-curvature="0"
           id="path3826" />
        <path
           inkscape:connector-curvature="0"
           style="fill:#f1d291;stroke:#000000;stroke-width:0.35433"
           sodipodi:nodetypes="cccssssssssssssssssccccccccccccccccccccccccccccccccccccccccccccccccccccccccc"
           d="m 181.88,177.79 c 40.23,1.2139 138.05,-24.812 165.91,-0.33433 l 8.1958,260.67 c -5.7115,-5.9866 -14.547,-8.713 -22.559,-12.361 -2.1534,-0.98061 -6.0956,-3.0114 -8.0839,-3.827 -3.8726,-1.5884 -8.4667,-2.173 -12.377,-3.1141 -2.8297,-0.68102 -4.6371,-0.18435 -7.5148,-0.638 -8.0628,-1.2711 -15.468,-0.94133 -23.423,-0.9902 -2.0974,-0.0128 -4.8799,-0.49533 -6.9797,-0.42877 -1.9308,0.0613 -3.1788,0.66569 -5.1064,0.78574 -4.7064,0.29311 -9.3956,0.74968 -14.031,1.3116 -1.8768,0.22752 -3.0623,-0.55142 -4.919,-0.29323 -2.9065,0.40419 -6.4677,1.865 -9.3096,2.3201 -5.151,0.82493 -10.18,1.7092 -15.032,2.5647 -2.8365,0.50011 -5.7831,0.47852 -8.4872,0.94133 -2.7578,0.47198 -5.2704,1.4273 -7.8671,1.8235 -8.5752,1.3083 -16.208,2.1016 -22.472,1.7071 -1.3604,-0.0856 -2.8269,-0.90983 -4.0539,-1.1144 -1.288,-0.21475 -2.3295,0.1837 -3.4606,-0.17762 -4.1406,-1.3226 -7.1969,-3.6805 -8.9218,-7.4644 l 0.17304,-5.5888 0.57702,-4.1465 -0.1269,-6.1206 -0.27815,-2.9834 0.41622,-3.1519 -0.17723,-3.9567 -0.20121,-2.8413 0.32785,-2.7863 0.1191,-5.2942 -0.0177,-2.1737 0.1252,-2.6051 0.13058,-3.5553 0.43957,-2.4132 -0.32059,-2.8734 -0.0393,-9.038 0.55826,-1.7244 -0.46956,-2.2171 0.39188,-10.597 0.28605,-2.4698 -0.16324,-2.9873 0.1722,-7.0516 0.36604,-3.903 0.10336,-6.7736 0.56559,-1.8795 -0.46554,-2.5659 0.0305,-10.423 -0.46034,-2.8975 0.90995,-3.4494 -0.16988,-8.548 0.16307,-3.1242 -0.0128,-3.5344 -0.42042,-7.6652 0.83532,-8.3065 -0.27274,-4.4978 0.45731,-3.7032 0.18421,-8.1856 0.37483,-3.2477 -0.21732,-3.7519 0.21108,-9.3794 0.18733,-2.2779 -0.0452,-4.0357 c 1.2662,-2.2674 -0.20971,-4.9615 0.16145,-7.174 l 0.41392,-2.8912 0.17427,-2.4978 -0.31959,-6.5483 c 0.007,-1.3067 0.49809,-2.9126 0.53823,-4.2185 l -0.29234,-6.7072 -0.15641,-2.7718 0.25209,-2.9804 -0.17695,-3.218 -0.2334,-3.0967 0.33307,-4.0302 -0.50513,-2.7029 0.96267,-2.3462 c -0.44425,-3.0461 3.2771,-1.5333 5.0912,-1.4763 z"
           id="path3828" />
        <path
           d="m 184.72,174.95 c 40.23,1.2139 138.05,-24.812 165.91,-0.33434 l 5.8454,263.24 c -5.7115,-5.9865 -12.001,-9.7154 -20.013,-13.364 -2.1534,-0.98061 -5.1177,-2.4246 -7.106,-3.2402 -3.8726,-1.5884 -8.8578,-3.5422 -12.768,-4.4832 -2.8297,-0.68102 -4.6371,-0.18435 -7.5148,-0.63801 -8.0628,-1.2711 -16.25,-1.7237 -24.205,-1.7726 -2.0974,-0.0128 -4.8799,-0.49533 -6.9797,-0.42876 -1.9308,0.0613 -3.1788,0.66569 -5.1064,0.78573 -4.7064,0.29311 -9.3956,0.74969 -14.031,1.3116 -1.8768,0.22753 -3.0623,-0.55142 -4.919,-0.29322 -2.9065,0.40419 -6.4677,1.865 -9.3096,2.3201 -5.151,0.82493 -10.18,1.7092 -15.033,2.5647 -2.8365,0.50011 -5.7831,0.47851 -8.4872,0.94133 -2.7578,0.47197 -5.2704,1.4273 -7.8671,1.8235 -8.5752,1.3083 -16.208,2.1016 -22.472,1.7071 -1.3604,-0.0857 -2.8269,-0.90983 -4.0539,-1.1144 -1.288,-0.21474 -2.3295,0.18371 -3.4606,-0.17761 -4.1405,-1.3226 -7.1968,-3.6805 -8.9218,-7.4644 l 0.17304,-5.5888 0.57701,-4.1465 -0.1269,-6.1206 -0.27814,-2.9834 0.41622,-3.1519 -0.17724,-3.9567 -0.20121,-2.8414 0.32786,-2.7863 0.1191,-5.2942 -0.0177,-2.1736 0.1252,-2.6052 0.13059,-3.5553 0.43957,-2.4132 -0.3206,-2.8734 -0.0393,-9.038 0.55826,-1.7244 -0.46956,-2.2171 0.39187,-10.597 0.28606,-2.4698 -0.16324,-2.9873 0.1722,-7.0516 0.36604,-3.903 0.10336,-6.7736 0.56559,-1.8795 -0.46555,-2.566 0.0305,-10.423 -0.46034,-2.8975 0.90995,-3.4494 -0.16988,-8.548 0.16307,-3.1242 -0.0128,-3.5344 -0.42043,-7.6652 0.83533,-8.3065 -0.27274,-4.4978 0.4573,-3.7032 0.18421,-8.1856 0.37483,-3.2477 -0.21732,-3.7519 0.21108,-9.3794 0.18733,-2.2779 -0.0452,-4.0357 c 1.2662,-2.2674 -0.2097,-4.9615 0.16146,-7.174 l 0.41391,-2.8912 0.17428,-2.4978 -0.31959,-6.5484 c 0.007,-1.3067 0.49808,-2.9126 0.53822,-4.2185 l -0.29234,-6.7072 -0.1564,-2.7718 0.25208,-2.9804 -0.17695,-3.218 -0.23339,-3.0967 0.33307,-4.0302 -0.50513,-2.7029 0.96266,-2.3462 c -0.44425,-3.0461 3.2771,-1.5333 5.0912,-1.4763 z"
           style="fill:#f1d291;stroke:#000000;stroke-width:0.35433"
           sodipodi:nodetypes="cccssssssssssssssssccccccccccccccccccccccccccccccccccccccccccccccccccccccccc"
           inkscape:connector-curvature="0"
           id="path3824" />
        <path
           d="m 424.96,420.24 c -5.288,-0.007 -27.251,0.83622 -39.014,4.7863 -20.893,7.0162 -31.475,15.038 -30.874,14.586 3.6919,-2.7745 8.4276,-3.78 18.809,-5.2281 3.8759,-0.54067 10.145,-2.7552 11.011,-3.0914 4.1223,-1.601 9.104,-1.8438 12.501,-2.1143 3.3156,-0.26402 6.1164,-0.24017 10.212,-0.4918 3.9651,-0.2436 8.8521,-0.46537 12.84,-0.25387 2.0943,0.11104 8.1187,-0.0128 10.218,0.0539 1.9307,0.0613 8.6428,-0.58391 10.57,-0.4638 4.7065,0.29311 5.8948,0.14234 10.53,0.70418 1.8767,0.22752 22.892,0.65588 24.733,0.95999 47.613,6.7767 60.601,1.2724 36.195,1.429 -11.609,-1.4016 -38.713,-10.811 -87.731,-10.877 z"
           style="fill:#b37218"
           sodipodi:nodetypes="cssssssssssccsc"
           inkscape:connector-curvature="0"
           id="path3886" />
        <path
           inkscape:connector-curvature="0"
           style="fill:#b97c2c;stroke:#000000;stroke-width:0.35433"
           sodipodi:nodetypes="cccssssssssssssssssccccccccccccccccccccccccccccccccccccccccccccccccccccccscc"
           d="m 528.43,175.25 c -40.23,1.2139 -130.2,-16.603 -158.07,7.8745 l -14.327,255.25 c 7.2694,-5.5283 14.945,-6.7661 22.956,-10.414 2.1535,-0.98061 7.0655,-2.0891 9.0538,-2.9046 3.8725,-1.5884 8.1918,-1.5314 12.102,-2.4725 2.8298,-0.68102 4.6372,-0.18436 7.5149,-0.63801 8.0627,-1.2711 19.646,-0.50433 27.601,-0.55319 2.0973,-0.0128 4.8799,-0.49534 6.9798,-0.42877 1.9307,0.0613 3.1787,0.66569 5.1063,0.78573 4.7064,0.29311 9.3957,0.74969 14.031,1.3116 1.8767,0.22752 3.0623,-0.55142 4.9189,-0.29323 2.9065,0.40419 6.4678,1.865 9.3096,2.3201 5.151,0.82493 10.18,1.7092 15.033,2.5647 2.8365,0.50011 5.7831,0.47851 8.4872,0.94133 2.7578,0.47198 5.2704,1.4273 7.8671,1.8235 8.5752,1.3083 16.208,2.1016 22.472,1.7071 1.3604,-0.0856 2.827,-0.90983 4.054,-1.1144 1.288,-0.21475 2.3294,0.1837 3.4606,-0.17762 4.1406,-1.3226 7.1968,-3.6805 8.9218,-7.4644 l 0.68696,-4.1143 -0.57707,-4.1465 0.12761,-6.1206 0.27819,-2.9835 -0.41629,-3.1519 0.17723,-3.9567 0.20134,-2.8414 -0.32795,-2.7863 -0.11911,-5.2942 0.0184,-2.1736 -0.12478,-2.6051 -0.13044,-3.5553 -0.43954,-2.4132 0.32058,-2.8734 0.0397,-9.038 -0.55822,-1.7244 0.4696,-2.2171 -0.3919,-10.597 -0.28612,-2.4698 0.16334,-2.9873 -0.17228,-7.0516 -0.36609,-3.903 -0.10351,-6.7736 -0.56559,-1.8795 0.46563,-2.5659 -0.0298,-10.423 0.46038,-2.8975 -0.90999,-3.4494 0.16986,-8.548 -0.16305,-3.1242 0.0142,-3.5344 0.4204,-7.6652 -0.83527,-8.3065 0.27265,-4.4978 -0.45726,-3.7032 -0.18418,-8.1856 -0.37489,-3.2477 0.21736,-3.7519 -0.21112,-9.3794 -0.1873,-2.2779 0.0454,-4.0357 c -1.2663,-2.2674 0.2097,-4.9615 -0.16149,-7.174 l -0.41388,-2.8912 -0.17426,-2.4978 0.31959,-6.5484 c -0.0142,-1.3067 -0.88489,-3.2994 -0.92502,-4.6054 l 0.21495,-5.9334 -0.38509,-3.5456 0.28938,-3.8315 -0.28726,-4.843 -0.54021,-4.799 -0.79727,-6.2742 -0.81017,-4.3278 -0.96259,-2.3462 c -1.1683,-2.8479 -3.2771,-1.5333 -5.0912,-1.4763 z"
           id="path3888" />
        <path
           inkscape:connector-curvature="0"
           style="fill:#d7a55c;stroke:#000000;stroke-width:0.35433"
           sodipodi:nodetypes="cccsssssssssssscccccccccccccccccccccccccccccccccccccccccccccccccccccc"
           d="m 526.8,173.02 c -40.23,1.2139 -140.09,-17.52 -167.95,6.9572 l -2.6802,258.51 c 19.679,-13.965 42.339,-20.586 72.3,-18.997 2.0945,0.11104 7.6214,-0.28441 9.7211,-0.21785 1.9309,0.0613 4.8659,-0.17797 6.7935,-0.0579 4.7063,0.29311 7.076,0.9606 11.711,1.5225 1.8767,0.22752 7.9124,0.0813 9.7692,0.33952 2.9065,0.40419 5.8351,1.865 8.677,2.3201 5.151,0.82493 10.391,1.4983 15.243,2.3538 2.8364,0.50011 5.7831,0.68943 8.4872,1.1522 2.7578,0.47198 6.5355,1.8491 9.1322,2.2453 8.5753,1.3083 12.834,0.83609 19.098,0.4416 1.3604,-0.0857 2.827,-0.90983 4.054,-1.1144 1.288,-0.21475 2.3294,0.1837 3.4606,-0.17762 4.1405,-1.3226 7.1968,-3.6805 8.9218,-7.4644 l 0.21807,-6.5158 -0.27705,-3.0962 0.1276,-3.5699 -0.47186,-2.2333 0.33376,-3.9021 -0.12335,-5.4571 -0.39885,-2.3912 0.27223,-3.2364 -0.1191,-5.2942 -0.2823,-2.3237 0.17483,-2.4551 -0.13045,-5.8058 -0.73956,-2.7133 0.6206,-2.5733 -0.26089,-11.589 -0.55821,-1.7244 0.4696,-2.2171 -0.24189,-10.747 -0.73616,-3.07 0.61337,-2.3871 -0.34157,-15.178 -0.56559,-1.8795 0.46549,-2.566 -0.18049,-8.0228 -0.73985,-1.6972 0.59026,-4.9498 -0.28017,-12.449 -0.91311,-3.1242 0.76324,-3.5344 -0.26486,-11.771 -0.17723,-2.2472 -0.0142,-5.9538 -0.18418,-8.1856 -0.67477,-3.0976 0.51724,-3.902 -0.21098,-9.3794 -1.0875,-3.6283 0.94544,-2.6853 -0.16149,-7.174 -0.41388,-2.8912 0.27563,-3.248 -0.13044,-5.7982 -0.0312,-2.0506 -0.0581,-1.8679 -0.15781,-7.0072 -0.74367,-1.8716 0.64811,-2.3802 -0.12336,-5.4686 -0.52617,-5.9927 -1.4309,-6.0165 -1.7048,-7.2317 c 0.44422,-3.0461 -3.2771,-1.5333 -5.0913,-1.4763 z"
           id="path3890" />
        <path
           d="m 524.57,172.72 c -40.23,1.2139 -132.01,-19.742 -159.88,4.7358 l -8.8111,261.1 c 5.7115,-5.9866 15.162,-9.1361 23.174,-12.784 2.1533,-0.98061 6.0956,-3.0114 8.0839,-3.827 3.8726,-1.5884 8.4667,-2.173 12.377,-3.1141 2.8298,-0.68102 4.6372,-0.18435 7.5149,-0.638 8.0627,-1.2711 15.468,-0.94133 23.423,-0.9902 2.0973,-0.0128 4.8799,-0.49533 6.9796,-0.42877 1.9307,0.0613 3.1789,0.66569 5.1063,0.78574 4.7065,0.29311 9.3957,0.74968 14.031,1.3116 1.8768,0.22752 3.0623,-0.55142 4.919,-0.29323 2.9065,0.40419 6.4678,1.865 9.3096,2.3201 5.151,0.82493 10.18,1.7092 15.032,2.5647 2.8366,0.50011 5.7831,0.47852 8.4872,0.94133 2.7578,0.47198 5.2704,1.4273 7.8671,1.8235 8.5752,1.3083 16.208,2.1016 22.472,1.7071 1.3603,-0.0856 2.8268,-0.90983 4.0538,-1.1144 1.288,-0.21475 2.3294,0.1837 3.4606,-0.17762 4.1406,-1.3226 7.197,-3.6805 8.9218,-7.4644 l -0.17298,-5.5888 -0.57707,-4.1465 0.12761,-6.1206 0.27818,-2.9834 -0.41628,-3.1519 0.17723,-3.9567 0.20134,-2.8413 -0.32796,-2.7863 -0.1191,-5.2942 0.0184,-2.1737 -0.12477,-2.6051 -0.13044,-3.5553 -0.43954,-2.4132 0.32058,-2.8734 0.0397,-9.038 -0.55822,-1.7244 0.4696,-2.2171 -0.3919,-10.597 -0.28613,-2.4698 0.16334,-2.9873 -0.17227,-7.0516 -0.36609,-3.903 -0.10351,-6.7736 -0.56559,-1.8795 0.46563,-2.5659 -0.0298,-10.423 0.46038,-2.8975 -0.90999,-3.4494 0.16986,-8.548 -0.16306,-3.1242 0.0142,-3.5344 0.4204,-7.6652 -0.83527,-8.3065 0.27266,-4.4978 -0.45726,-3.7032 -0.18419,-8.1856 -0.37488,-3.2477 0.21736,-3.7519 -0.21112,-9.3794 -0.1873,-2.2779 0.0454,-4.0357 c -1.2663,-2.2674 0.2097,-4.9615 -0.1615,-7.174 l -0.41387,-2.8912 -0.17426,-2.4978 0.31959,-6.5483 c -0.0142,-1.3067 -0.4981,-2.9126 -0.53823,-4.2185 l 0.29237,-6.7072 0.15639,-2.7718 -0.2521,-2.9804 0.17695,-3.218 0.23338,-3.0967 -1.2615,-5.1135 -1.0421,-5.8754 -2.1231,-5.2865 c 0.44422,-3.0461 -3.6639,0.4011 -5.478,0.45808 z"
           style="fill:#f1d291;stroke:#000000;stroke-width:0.35433"
           sodipodi:nodetypes="cccssssssssssssssssccccccccccccccccccccccccccccccccccccccccccccccccccccccccc"
           inkscape:connector-curvature="0"
           id="path3892" />
        <path
           inkscape:connector-curvature="0"
           style="fill:#f1d291;stroke:#000000;stroke-width:0.35433"
           sodipodi:nodetypes="cccssssssssssssssssscccccccccccccccccccccccccccccccccccccccccccccccccccccccccc"
           d="m 522.58,170.61 c -40.23,1.2139 -132.86,-20.466 -160.72,4.0115 l -5.7754,263.12 c 0.15313,-0.1605 0.35784,-0.23098 0.51264,-0.38904 5.6186,-5.7371 11.633,-9.303 19.43,-12.853 2.1533,-0.98057 5.1177,-2.4246 7.1059,-3.2402 3.8726,-1.5884 8.8579,-3.5422 12.768,-4.4832 2.8298,-0.68102 4.6372,-0.18435 7.5149,-0.63801 8.0627,-1.2711 16.25,-1.7237 24.205,-1.7726 2.0973,-0.0128 4.8799,-0.49533 6.9796,-0.42876 1.9307,0.0613 3.1789,0.66569 5.1063,0.78573 4.7065,0.29311 9.3957,0.74969 14.031,1.3116 1.8768,0.22753 3.0623,-0.55142 4.919,-0.29322 2.9065,0.40419 6.4678,1.865 9.3096,2.3201 5.151,0.82493 10.18,1.7092 15.032,2.5647 2.8366,0.50011 5.7831,0.47851 8.4872,0.94133 2.7578,0.47197 5.2704,1.4273 7.8671,1.8235 8.5752,1.3083 16.208,2.1016 22.472,1.7071 1.3603,-0.0857 2.8268,-0.90983 4.0538,-1.1144 1.288,-0.21474 2.3294,0.18371 3.4606,-0.17761 4.1406,-1.3226 7.197,-3.6805 8.9218,-7.4644 l -0.17298,-5.5888 -0.57708,-4.1465 0.12761,-6.1206 0.27819,-2.9834 -0.41629,-3.1519 0.17723,-3.9567 0.20134,-2.8414 -0.32795,-2.7863 -0.1191,-5.2942 0.0184,-2.1736 -0.12477,-2.6052 -0.13045,-3.5553 -0.43954,-2.4132 0.32058,-2.8734 0.0397,-9.038 -0.55821,-1.7244 0.46959,-2.2171 -0.3919,-10.597 -0.28612,-2.4698 0.16334,-2.9873 -0.17227,-7.0516 -0.3661,-3.903 -0.1035,-6.7736 -0.56559,-1.8795 0.46563,-2.566 -0.0298,-10.423 0.46038,-2.8975 -0.90999,-3.4494 0.16986,-8.548 -0.16305,-3.1242 0.0142,-3.5344 0.4204,-7.6652 -0.83527,-8.3065 0.27265,-4.4978 -0.45726,-3.7032 -0.18418,-8.1856 -0.37489,-3.2477 0.21736,-3.7519 -0.21112,-9.3794 -0.1873,-2.2779 0.0454,-4.0357 c -1.2663,-2.2674 0.20971,-4.9615 -0.16149,-7.174 l -0.41388,-2.8912 -0.17426,-2.4978 0.31959,-6.5484 c -0.0142,-1.3067 -0.4981,-2.9126 -0.53822,-4.2185 l 0.29236,-6.7072 0.15639,-2.7718 -0.25209,-2.9804 0.17695,-3.218 0.23338,-3.0967 -1.1066,-2.8696 -0.50079,-3.7088 -1.7803,-4.3009 -0.80691,-3.307 c -0.32937,-3.9746 -3.2771,-1.5333 -5.0912,-1.4763 z"
           id="path3894" />
        <path
           d="m 354.92,437.87 c -6.0677,-3.4666 -14.463,-5.1621 -21.235,-7.7202 -1.0463,-0.39522 -5.8383,-1.4998 -6.8577,-1.8461 -5.3512,-1.8179 -6.1963,-1.7267 -12.629,-2.5033 -3.302,-0.39863 -6.7383,-0.71811 -10.834,-0.96974 -3.9651,-0.2436 -9.4019,-0.33771 -13.389,-0.12621 -2.0944,0.11104 -9.2709,0.26553 -11.371,0.3321 -1.9308,0.0613 -5.874,-0.63627 -7.8015,-0.51616 -4.7064,0.29311 -6.1595,-0.13925 -10.795,0.42263 -1.8768,0.22752 -9.1039,1.3645 -10.961,1.6227 -2.9065,0.40419 -7.7596,1.0401 -10.601,1.4952 -5.151,0.82493 -10.666,1.4983 -15.518,2.3538 -2.8365,0.50011 -6.3329,0.3228 -9.0371,0.78562 -2.7578,0.47198 -6.9022,1.1158 -9.4989,1.512 -8.5752,1.3083 -10.084,0.74443 -16.349,0.34994"
           style="fill:none;stroke:#000000;stroke-width:0.35433"
           sodipodi:nodetypes="csssssssssssssc"
           inkscape:connector-curvature="0"
           id="path3834" />
        <path
           inkscape:connector-curvature="0"
           style="fill:none;stroke:#000000;stroke-width:0.35433"
           sodipodi:nodetypes="cssssssssssssc"
           d="m 352.86,437.11 c -8.185,-3.4973 -8.2819,-1.4851 -16.703,-4.6658 -1.0463,-0.39522 -6.3881,-1.5914 -7.4075,-1.9377 -5.3512,-1.8179 -7.0211,-2.0017 -13.454,-2.7783 -3.302,-0.39863 -6.9216,-0.80976 -11.017,-1.0614 -3.9651,-0.2436 -7.6607,-0.52103 -11.648,-0.30953 -2.0944,0.11104 -6.7966,0.17388 -8.8963,0.24044 -1.9308,0.0613 -10.914,-0.63626 -12.842,-0.51615 -4.7064,0.29311 -2.9521,0.0441 -7.5874,0.60595 -1.8768,0.22752 -10.57,0.81452 -12.427,1.0728 -2.9065,0.4042 -8.1262,0.85674 -10.968,1.3119 -5.151,0.82493 -10.483,1.4066 -15.335,2.2621 -2.8365,0.50011 -7.1577,0.3228 -9.8619,0.78562 -2.7578,0.47197 -7.727,0.7492 -10.324,1.1454"
           id="path3836" />
        <path
           d="m 351.18,436.54 c -2.966,-1.4083 -10.273,-1.3856 -15.028,-2.9164 -1.0646,-0.34275 -7.5795,-2.0497 -8.5989,-2.396 -5.3512,-1.8179 -6.3796,-1.3601 -12.813,-2.1367 -3.302,-0.39863 -5.8219,-0.25982 -9.9175,-0.51145 -3.9651,-0.2436 -7.6606,-0.52102 -11.648,-0.30953 -2.0944,0.11104 -6.7966,0.17388 -8.8963,0.24044 -1.9308,0.0613 -10.914,-0.63626 -12.842,-0.51615 -4.7064,0.29311 -2.9521,0.0441 -7.5874,0.60595 -1.8768,0.22752 -12.77,0.17291 -14.626,0.43118 -2.9065,0.40419 -10.509,0.49011 -13.351,0.94522"
           style="fill:none;stroke:#000000;stroke-width:0.35433"
           sodipodi:nodetypes="csssssssssc"
           inkscape:connector-curvature="0"
           id="path3838" />
        <path
           inkscape:connector-curvature="0"
           style="fill:none;stroke:#000000;stroke-width:0.35433"
           sodipodi:nodetypes="csssssssssssssc"
           d="m 357.57,437.87 c 6.0676,-3.4666 14.462,-5.1621 21.235,-7.7202 1.0464,-0.39522 5.8384,-1.4998 6.8577,-1.8461 5.3512,-1.8179 6.1964,-1.7267 12.629,-2.5033 3.3021,-0.39863 6.7383,-0.71811 10.834,-0.96974 3.9651,-0.2436 9.4019,-0.33771 13.389,-0.12621 2.0945,0.11104 9.2709,0.26553 11.371,0.3321 1.9309,0.0613 5.874,-0.63627 7.8016,-0.51616 4.7063,0.29311 6.1595,-0.13925 10.795,0.42263 1.8767,0.22752 9.1039,1.3645 10.961,1.6227 2.9065,0.40419 7.7596,1.0401 10.601,1.4952 5.151,0.82493 10.666,1.4983 15.518,2.3538 2.8365,0.50011 6.3329,0.3228 9.0371,0.78562 2.7578,0.47198 6.9021,1.1158 9.4989,1.512 8.5752,1.3083 10.084,0.74443 16.349,0.34994"
           id="path3910" />
        <path
           d="m 359.62,437.11 c 8.1851,-3.4973 8.282,-1.4851 16.703,-4.6658 1.0464,-0.39522 6.3882,-1.5914 7.4075,-1.9377 5.3512,-1.8179 7.0212,-2.0017 13.454,-2.7783 3.3021,-0.39863 6.9216,-0.80976 11.017,-1.0614 3.9651,-0.2436 7.6606,-0.52103 11.648,-0.30953 2.0945,0.11104 6.7966,0.17388 8.8964,0.24044 1.9307,0.0613 10.914,-0.63626 12.842,-0.51615 4.7064,0.29311 2.952,0.0441 7.5873,0.60595 1.8767,0.22752 10.57,0.81452 12.427,1.0728 2.9065,0.4042 8.1261,0.85674 10.968,1.3119 5.1511,0.82493 10.483,1.4066 15.335,2.2621 2.8364,0.50011 7.1576,0.3228 9.8619,0.78562 2.7578,0.47197 7.7268,0.7492 10.324,1.1454"
           style="fill:none;stroke:#000000;stroke-width:0.35433"
           sodipodi:nodetypes="cssssssssssssc"
           inkscape:connector-curvature="0"
           id="path3912" />
        <path
           inkscape:connector-curvature="0"
           style="fill:none;stroke:#000000;stroke-width:0.35433"
           sodipodi:nodetypes="csssssssssc"
           d="m 361.3,436.54 c 2.966,-1.4083 10.273,-1.3856 15.028,-2.9164 1.0647,-0.34275 7.5795,-2.0497 8.599,-2.396 5.3512,-1.8179 6.3796,-1.3601 12.813,-2.1367 3.3021,-0.39863 5.8219,-0.25982 9.9176,-0.51145 3.9651,-0.2436 7.6606,-0.52102 11.648,-0.30953 2.0945,0.11104 6.7966,0.17388 8.8964,0.24044 1.9307,0.0613 10.914,-0.63626 12.842,-0.51615 4.7064,0.29311 2.952,0.0441 7.5873,0.60595 1.8767,0.22752 12.77,0.17291 14.626,0.43118 2.9065,0.40419 10.509,0.49011 13.351,0.94522"
           id="path3914" />
        <path
           d="m 356.25,438.44 c 8.9051,-5.3674 15.324,-6.5648 23.745,-9.7455 1.0462,-0.39523 2.9056,-0.85817 3.9251,-1.2045 5.3512,-1.8179 8.7623,-2.6433 15.195,-3.4199 6.4988,-0.78454 14.376,-1.5259 22.482,-1.096 2.0945,0.11103 10.646,-0.28442 12.745,-0.21785 1.9307,0.0613 5.4157,-0.17798 7.3433,-0.0579 4.7063,0.29311 7.0759,0.31899 11.711,0.88091 1.8768,0.22753 9.104,0.90618 10.961,1.1644 2.9065,0.4042 6.5683,1.1317 9.4101,1.5868 5.151,0.82493 11.216,1.8649 16.068,2.7204 2.8364,0.50011 5.9663,0.41446 8.6704,0.87728 2.7578,0.47197 6.9022,1.6658 9.4989,2.062 8.5753,1.3083 12.834,0.83609 19.098,0.4416 1.3604,-0.0856 2.827,-0.90983 4.054,-1.1144 0.72964,-0.12167 1.3802,-0.0465 2.0127,-0.0242 0.48406,0.017 0.95749,0.003 1.4479,-0.15341"
           style="fill:none;stroke:#000000;stroke-width:0.35433"
           sodipodi:nodetypes="csssssssssssssssc"
           inkscape:connector-curvature="0"
           id="path3908" />
        <path
           inkscape:connector-curvature="0"
           style="fill:none;stroke:#000000;stroke-width:0.35433"
           sodipodi:nodetypes="cssssssssssssssssc"
           d="m 356.12,437.94 c -0.88424,-0.53296 -1.7017,-0.33326 -2.5345,-0.79138 -7.5539,-4.1556 -13.202,-5.4738 -20.787,-8.3387 -1.0463,-0.39522 -3.2134,-0.97356 -4.2328,-1.3199 -5.3512,-1.8179 -8.7623,-2.6433 -15.195,-3.4199 -6.4988,-0.78454 -14.376,-1.5259 -22.482,-1.096 -2.0944,0.11103 -10.646,-0.28442 -12.745,-0.21785 -1.9308,0.0613 -5.4157,-0.17798 -7.3433,-0.0579 -4.7064,0.29311 -7.076,0.31899 -11.711,0.88091 -1.8768,0.22753 -9.1039,0.90618 -10.961,1.1644 -2.9065,0.4042 -6.5682,1.1317 -9.4101,1.5868 -5.151,0.82493 -11.216,1.8649 -16.068,2.7204 -2.8365,0.50011 -5.9664,0.41446 -8.6705,0.87728 -2.7578,0.47197 -6.9022,1.6658 -9.4989,2.062 -8.5752,1.3083 -12.834,0.83609 -19.098,0.4416 -1.3604,-0.0856 -2.8269,-0.90983 -4.0539,-1.1144 -0.72961,-0.12167 -1.3801,-0.0465 -2.0127,-0.0242 -0.48406,0.017 -0.95759,0.003 -1.448,-0.15341"
           id="path3832" />
      </g>
      <g
         transform="translate(-120.19971,473.74039)"
         inkscape:label="upperpage"
         id="layer5">
        <path
           inkscape:connector-curvature="0"
           style="fill:#f1d291;stroke:#000000;stroke-width:0.35433"
           sodipodi:nodetypes="cssssssssssssssssssssccssssssssssssccccccccccccccccccccccccccccccccccccccccccccccccccccscc"
           d="m 187.55,172.12 c 5.1714,0.15604 11.334,-0.15081 18.207,-0.75216 1.1374,-0.0996 2.6859,0.11926 3.8609,0.004 1.9874,-0.19431 3.6351,-0.73592 5.7202,-0.96832 3.9448,-0.43965 8.0536,-0.94086 12.285,-1.4786 1.603,-0.20372 4.1373,-0.021 5.773,-0.23384 2.1536,-0.28022 3.4199,-0.95887 5.6213,-1.2495 5.1419,-0.67872 10.4,-1.3772 15.708,-2.056 1.477,-0.18885 2.8926,-0.0498 4.376,-0.23471 1.0005,-0.12479 2.0675,-0.57483 3.0698,-0.69716 4.6299,-0.565 9.2744,-1.1013 13.891,-1.5832 1.7688,-0.18463 4.7735,-0.10012 6.5316,-0.26732 0.94309,-0.0896 0.64411,-0.43778 1.583,-0.52182 6.1934,-0.55427 12.288,-0.98054 18.177,-1.2146 1.1859,-0.0471 1.776,0.37051 2.9443,0.3395 1.16,-0.0308 3.5512,-0.3798 4.6921,-0.39367 7.2547,-0.0882 14.023,0.15907 20.145,0.88595 0.83733,0.0994 2.4458,0.46893 3.2586,0.58666 1.4821,0.21467 2.1393,0.19927 3.5358,0.4783 2.4401,0.48756 4.7458,1.4684 6.9038,2.1712 1.8836,0.6134 3.263,0.92605 4.9127,1.6467 2.5354,1.1075 5.1759,2.7341 7.1062,4.4299 l 1.217,266.76 c -18.463,-19.352 -40.712,-25.46 -64.939,-25.608 -2.0974,-0.0128 -7.6214,-0.28442 -9.7211,-0.21785 -1.9308,0.0613 -4.8659,-0.17797 -6.7934,-0.0579 -4.7064,0.29311 -7.076,0.9606 -11.711,1.5225 -1.8768,0.22752 -7.9126,0.0813 -9.7692,0.33952 -2.9065,0.40419 -5.8351,1.865 -8.677,2.3201 -5.151,0.82493 -10.391,1.4983 -15.243,2.3538 -2.8365,0.50011 -5.7831,0.68943 -8.4872,1.1522 -2.7578,0.47198 -6.5356,1.8491 -9.1324,2.2453 -8.5752,1.3083 -12.834,0.83609 -19.098,0.4416 -1.3604,-0.0857 -2.8269,-0.90983 -4.0539,-1.1144 -1.288,-0.21474 -2.3295,0.18371 -3.4606,-0.17761 -4.1405,-1.3226 -7.1968,-3.6805 -8.9218,-7.4644 l 0.17304,-7.6894 0.277,-3.0962 -0.12704,-3.5699 0.47192,-2.2333 -0.33385,-3.9021 0.12279,-5.4571 0.39884,-2.3912 -0.2722,-3.2364 0.1191,-5.2942 0.28232,-2.3237 -0.17477,-2.4551 0.13058,-5.8058 0.7396,-2.7133 -0.62062,-2.5733 0.26079,-11.589 0.55826,-1.7244 -0.46956,-2.2171 0.24186,-10.747 0.7361,-3.07 -0.61328,-2.3871 0.34155,-15.178 0.56559,-1.8795 -0.46555,-2.566 0.18055,-8.0228 0.73977,-1.6972 -0.59018,-4.9498 0.28016,-12.449 0.91314,-3.1242 -0.7633,-3.5344 0.26489,-11.771 0.17729,-2.2472 0.007,-5.9538 0.18421,-8.1856 0.67485,-3.0976 -0.51734,-3.902 0.21108,-9.3794 1.0874,-3.6283 -0.94533,-2.6853 0.16145,-7.174 0.41392,-2.8912 -0.27576,-3.248 0.13045,-5.7982 0.0308,-2.0506 0.0574,-1.8679 0.15769,-7.0072 0.74368,-1.8716 -0.648,-2.3802 0.12307,-5.4686 0.21665,-2.0464 -0.11697,-2.3798 0.15751,-6.9996 c 0.39848,-0.62406 1.1241,-1.1748 2.2674,-1.2132 0.68453,-0.023 2.3144,-0.27909 2.8238,-0.26309 z"
           id="path3813" />
        <path
           inkscape:connector-curvature="0"
           style="fill:url(#linearGradient4052)"
           sodipodi:nodetypes="cccscsssssscc"
           d="m 304.11,161.38 c 22.576,-0.73457 42.034,1.4764 52.192,10.401 l 0.77711,265.04 c -3.8737,-4.1114 -9.1735,-7.7824 -13.721,-10.877 -12.407,-8.4417 -26.27,-12.01 -40.053,-13.461 0,-12.007 -1.5192,-25.422 -1.4903,-36.434 0.0281,-10.658 0.5793,-21.496 0.62535,-31.752 0.0573,-12.748 -1.4111,-24.874 -1.3414,-37.903 0.0642,-11.998 2.1782,-24.84 2.2391,-37.891 0.0542,-11.627 -1.4317,-21.265 -1.3901,-34.313 0.0377,-11.861 2.1165,-26.473 2.1364,-39.944 0.0162,-10.994 -0.81282,-20.462 -0.81282,-32.78 z"
           id="path3803" />
        <path
           d="m 520.91,170.03 c -1.2102,0.83829 -1.3451,1.3674 -3.7896,1.2895 -2.4667,-0.0786 -4.1511,0.54999 -6.89,0.35026 -1.5238,-0.11118 -3.0691,-0.23739 -4.6366,-0.37716 -0.9989,-0.0891 -1.4632,0.12692 -2.4802,0.0272 -1.9131,-0.1874 -4.4018,-0.70323 -6.38,-0.92356 -11.969,-1.3331 -25.146,-3.217 -39.717,-5.0214 -0.5792,-0.0717 -3.4486,-0.0267 -4.0286,-0.0977 -0.87128,-0.10665 -1.5494,-0.56192 -2.4223,-0.66679 -6.5874,-0.79152 -13.211,-1.5262 -19.744,-2.1306 -0.90857,-0.0841 -1.3071,0.0377 -2.212,-0.041 -0.74963,-0.0652 -2.0062,-0.33211 -2.7528,-0.39357 -5.5283,-0.45506 -10.968,-0.80167 -16.242,-0.99423 -0.98911,-0.0362 -1.6673,0.23826 -2.6442,0.21329 -1.2272,-0.0313 -2.7491,-0.35877 -3.955,-0.37149 -9.2835,-0.0979 -17.912,0.37444 -25.421,1.6892 -1.1145,0.19511 -1.5942,0.51047 -2.6578,0.7436 -0.72881,0.15973 -2.0554,0.22691 -2.7591,0.40519 -6.4713,1.6394 -11.862,4.0748 -15.794,7.529 l 0.0317,265.9 c 18.463,-19.352 40.712,-25.46 64.939,-25.608 2.0975,-0.0128 6.6213,0.33097 8.7212,0.39754 1.9307,0.0613 4.8659,-0.17797 6.7935,-0.0579 4.7063,0.29311 7.0759,0.9606 11.711,1.5225 1.8767,0.22752 7.9126,0.0813 9.7692,0.33952 2.9065,0.40419 5.8351,1.865 8.677,2.3201 5.151,0.82493 10.391,1.4983 15.243,2.3538 2.8366,0.50011 5.7831,0.68943 8.4872,1.1522 2.7578,0.47198 6.5357,1.8491 9.1324,2.2453 8.5752,1.3083 12.834,0.83609 19.098,0.4416 1.3603,-0.0857 2.8268,-0.90983 4.0538,-1.1144 1.288,-0.21475 2.3296,0.1837 3.4606,-0.17762 4.1406,-1.3226 7.197,-3.6805 8.9218,-7.4644 l -0.17298,-7.6894 -0.27705,-3.0962 0.12761,-3.5699 -0.47187,-2.2333 0.33376,-3.9021 -0.12335,-5.4571 -0.39885,-2.3912 0.27223,-3.2364 -0.1191,-5.2942 -0.2823,-2.3237 0.17483,-2.4551 -0.13045,-5.8058 -0.73956,-2.7133 0.6206,-2.5733 -0.26089,-11.589 -0.55821,-1.7244 0.4696,-2.2171 -0.24189,-10.747 -0.73616,-3.07 0.61337,-2.3871 -0.34156,-15.178 -0.56559,-1.8795 0.46548,-2.5659 -0.18049,-8.0228 -0.73985,-1.6972 0.59026,-4.9498 -0.28017,-12.449 -0.91311,-3.1242 0.76324,-3.5344 -0.26486,-11.771 -0.17723,-2.2472 -0.0142,-5.9538 -0.18418,-8.1856 -0.67477,-3.0976 0.51724,-3.902 -0.21098,-9.3794 -1.0875,-3.6283 0.94544,-2.6853 -0.16149,-7.174 -0.41388,-2.8912 0.27563,-3.248 -0.13044,-5.7982 -0.0312,-2.0506 -0.0581,-1.8679 -0.15781,-7.0072 -0.74367,-1.8716 0.64811,-2.3802 -0.12336,-5.4686 -0.21665,-2.0464 0.11627,-2.3798 -3.639,-11.255 c -0.94828,-2.7366 -2.0392,-0.75956 -3.4666,-0.16093 z"
           style="fill:#f1d291;stroke:#000000;stroke-width:0.35433"
           sodipodi:nodetypes="csssssssssssssssssccsssssssssssscccccccccccccccccccccccccccccccccccccccccccccccccccccc"
           inkscape:connector-curvature="0"
           id="path3896" />
        <path
           d="m 408.38,161.38 c -22.576,-0.73457 -42.034,1.4764 -52.193,10.401 l -0.26973,264.9 c 3.8736,-4.1114 8.6661,-7.6428 13.214,-10.737 12.407,-8.4417 25.791,-12.648 39.574,-14.099 0,-12.007 1.9977,-24.783 1.9688,-35.796 -0.0283,-10.658 -0.5792,-21.496 -0.62528,-31.752 -0.0567,-12.748 1.4111,-24.874 1.3414,-37.903 -0.0638,-11.998 -2.1783,-24.84 -2.2391,-37.891 -0.0539,-11.627 1.4316,-21.265 1.3901,-34.313 -0.0383,-11.861 -2.1166,-26.473 -2.1364,-39.944 -0.0156,-10.994 0.81286,-20.462 0.81286,-32.78 z"
           style="fill:url(#linearGradient4060)"
           sodipodi:nodetypes="cccscsssssscc"
           inkscape:connector-curvature="0"
           id="path3898" />
        <path
           d="m 219.72,170.14 -6.1334,0.75778 -4.1561,0.77926 -3.8789,-0.094 -7.8428,0.58037 c -2.1894,0.16202 4.2325,1.5154 5.732,1.8414 1.4995,0.32596 5.6174,-0.45303 9.0664,-1.2161 2.3353,-0.51667 5.4411,0.0946 7.3472,-0.46108 4.1425,-1.2076 7.7876,-3.029 4.1637,-2.6941 z"
           style="fill:#d7a55c"
           sodipodi:nodetypes="ccccszsscc"
           inkscape:connector-curvature="0"
           id="path3958" />
        <path
           inkscape:connector-curvature="0"
           style="fill:#d7a55c"
           sodipodi:nodetypes="ccccszsscc"
           d="m 249.74,166.24 5.603,-0.5608 4.2178,-0.29986 2.7494,-0.68265 7.9949,-0.90467 c 2.1815,-0.24685 -2.9922,1.625 -4.3601,2.3205 -1.368,0.69548 -5.5488,0.9859 -9.0785,1.1222 -2.39,0.0923 -3.8687,0.68756 -5.8534,0.63327 -4.3133,-0.11798 -9.2147,-0.36819 -5.6243,-0.96292 z"
           id="path3960" />
        <path
           d="m 317.79,160.98 c 3.0721,0.16231 4.0992,0.24476 6.4536,0.44019 l 5.8048,0.469 c 2.1883,0.1768 -0.19573,0.73572 -1.662,1.1883 -1.4663,0.45256 -5.5019,0.0272 -9.0034,-0.43909 -2.3708,-0.31573 -2.5483,0.33103 -4.4948,-0.0601 -4.2303,-0.85026 -6.9685,-1.6636 -3.3293,-1.6387 2.8494,0.20068 3.3804,0.11898 6.2311,0.0404 z"
           style="fill:#b97c2c"
           sodipodi:nodetypes="ccszsscc"
           inkscape:connector-curvature="0"
           id="path3962" />
        <path
           inkscape:connector-curvature="0"
           style="fill:#d7a55c"
           sodipodi:nodetypes="ccccszscc"
           d="m 182.52,181.89 -0.24502,7.6578 0.6148,3.2029 -0.98645,3.2006 0.28872,8.3227 c 0.0761,2.1945 1.93,-4.3319 2.759,-6.7688 0.82899,-2.4368 0.86189,-10.752 0.0315,-15.6 -0.72867,-4.2536 -2.2832,-5.5384 -2.3625,-1.8994 z"
           id="path3948" />
        <path
           d="m 180.17,295.14 0.54145,4.728 -0.90964,1.7752 -0.004,7.8065 0.40496,2.8416 -0.62545,1.9444 0.21641,3.039 c 0.15597,2.1902 0.94638,-1.3641 2.6472,-5.8872 1.7008,-4.5232 -1.8196,-26.975 -2.2364,-19.198 z"
           style="fill:#d7a55c"
           sodipodi:nodetypes="ccccccszcc"
           inkscape:connector-curvature="0"
           id="path3950" />
        <path
           inkscape:connector-curvature="0"
           style="fill:#d7a55c"
           sodipodi:nodetypes="ccccccszcc"
           d="m 178.75,345.04 0.54144,2.2994 -0.79401,2.7003 0.20015,11.037 0.40496,2.8416 -0.62545,1.9444 -0.15152,6.7597 c -0.0492,2.1952 1.8457,-1.5685 2.8108,-12.838 0.96502,-11.27 -1.8195,-26.975 -2.2364,-19.198 z"
           id="path3952" />
        <path
           inkscape:connector-curvature="0"
           style="fill:#d7a55c"
           sodipodi:nodetypes="ccccccszssscc"
           d="m 177.98,382.04 0.46866,2.908 -0.54571,2.1392 -0.004,7.8065 0.40496,2.2592 -0.55267,2.0172 0.14363,3.5486 c 0.0888,2.194 1.6766,-0.24351 1.9922,-1.0826 0.31551,-0.83906 -0.56712,-2.1244 -0.59627,-3.2549 -0.0309,-1.197 0.78049,-2.2644 0.73063,-4.0806 -0.0179,-0.64988 -0.19011,-2.6878 -0.22422,-3.3381 -0.266,-5.0684 -0.25616,-9.7881 -0.76364,-9.8348 z"
           id="path3954" />
        <path
           d="m 181.96,225.64 0.54144,2.2994 -1.1941,3.4007 -0.1,9.4358 0.60502,3.4418 -0.52542,3.4451 c 0.0828,1.853 -0.92636,6.2867 0.14857,5.6592 1.8961,-1.1069 3.0461,-4.5699 2.9108,-12.938 -0.13526,-8.3681 1.0814,-12.668 -0.53592,-14.496 z"
           style="fill:#d7a55c"
           sodipodi:nodetypes="ccccccszcc"
           inkscape:connector-curvature="0"
           id="path3956" />
        <path
           d="m 211.54,421.61 c 2.4989,-0.0281 7.8684,-1.973 10.367,-2.3173 4.2092,-0.53459 6.5705,-1.0298 10.662,-1.4925 5.2545,-1.1406 3.3546,-2.1768 0.33404,-2.0722 -0.88745,-0.12522 -3.4609,0.67289 -4.5576,0.94771 -2.6283,-0.32111 -3.7725,0.001 -6.594,0.84711 -4.8877,1.3639 -3.2791,1.5171 -6.5806,1.5416 -1.1736,0.35557 -5.1803,3.1634 -3.631,2.5455 z"
           style="fill:#d7a55c"
           sodipodi:nodetypes="cccccccc"
           inkscape:connector-curvature="0"
           id="path3986" />
        <path
           inkscape:connector-curvature="0"
           style="fill:#b97c2c"
           sodipodi:nodetypes="cszssccc"
           d="m 335.58,421.4 4.6761,2.4109 c 1.9515,1.0061 -1.3535,-1.5786 -2.4327,-2.6703 -1.0786,-1.0915 -1.4645,-1.6034 -4.7709,-2.8464 -2.2389,-0.84166 -4.6575,-2.1602 -6.5578,-2.7348 -4.1303,-1.2489 -7.3782,-0.136 -3.7555,0.83602 2.7573,0.71576 4.5877,1.3238 6.4914,1.9662 2.2999,0.85635 4.8156,2.3543 6.3495,3.0384 z"
           id="path3988" />
        <path
           inkscape:connector-curvature="0"
           style="fill:#d7a55c"
           sodipodi:nodetypes="cccszcccc"
           d="m 478.21,417.42 c -2.4989,-0.0281 -4.9977,-0.68853 -7.4967,-1.0328 -4.2092,-0.53459 -7.5526,-1.7854 -11.342,-2.6258 l -2.6757,-0.43234 c -2.1674,-0.35019 -0.35901,-0.75911 0.52858,-0.88425 0.88745,-0.12522 3.4609,0.6729 4.5576,0.94771 2.6283,-0.3211 3.7725,0.001 6.594,0.84711 4.8877,1.3639 6.6786,1.9704 9.9801,1.9949 1.1736,0.35558 1.4031,1.8034 -0.14618,1.1855 z"
           id="path3980" />
        <path
           d="m 395.43,414.58 c -2.9475,0.8815 -3.9423,1.1497 -6.225,1.7584 l -5.6239,1.9015 c -2.0799,0.70322 -0.0638,-1.1474 1.1651,-2.0672 1.2283,-0.91981 3.617,-1.0034 7.0709,-1.7432 2.3388,-0.50092 3.0657,-1.2669 5.0302,-1.5539 4.2696,-0.62368 9.0649,-0.003 5.3383,0.42208 -2.7505,0.77038 -4.7778,0.92891 -6.7556,1.2824 z"
           style="fill:#b97c2c"
           sodipodi:nodetypes="ccszssccc"
           inkscape:connector-curvature="0"
           id="path3984" />
        <path
           d="m 529.63,181.89 0.24501,7.6578 -0.61479,3.2029 0.98642,3.2006 -0.28868,8.3227 c -0.0766,2.1945 -1.93,-4.3319 -2.759,-6.7688 -0.82903,-2.4368 -0.86193,-10.752 -0.0312,-15.6 0.72864,-4.2536 2.2832,-5.5384 2.3625,-1.8994 z"
           style="fill:#d7a55c"
           sodipodi:nodetypes="ccccszscc"
           inkscape:connector-curvature="0"
           id="path3970" />
        <path
           inkscape:connector-curvature="0"
           style="fill:#d7a55c"
           sodipodi:nodetypes="ccccccszcc"
           d="m 531.98,295.14 -0.54149,4.728 0.90971,1.7752 0,7.8065 -0.40495,2.8416 0.62543,1.9444 -0.21637,3.039 c -0.15597,2.1902 -0.94643,-1.3641 -2.6473,-5.8872 -1.7009,-4.5232 1.8196,-26.975 2.2364,-19.198 z"
           id="path3972" />
        <path
           d="m 533.4,345.04 -0.54149,2.2994 0.79401,2.7003 -0.2002,11.037 -0.40495,2.8416 0.62557,1.9444 0.15143,6.7597 c 0.0496,2.1952 -1.8456,-1.5685 -2.8108,-12.838 -0.96501,-11.27 1.8196,-26.975 2.2366,-19.198 z"
           style="fill:#d7a55c"
           sodipodi:nodetypes="ccccccszcc"
           inkscape:connector-curvature="0"
           id="path3974" />
        <path
           d="m 534.17,382.04 -0.46861,2.908 0.54574,2.1392 0,7.8065 -0.40494,2.2592 0.55269,2.0172 -0.14363,3.5486 c -0.0893,2.194 -1.6768,-0.24351 -1.9923,-1.0826 -0.31547,-0.83906 0.56715,-2.1244 0.59636,-3.2549 0.0312,-1.197 -0.78054,-2.2644 -0.73063,-4.0806 0.0184,-0.64988 0.18999,-2.6878 0.22417,-3.3381 0.26599,-5.0684 0.25621,-9.7881 0.76366,-9.8348 z"
           style="fill:#d7a55c"
           sodipodi:nodetypes="ccccccszssscc"
           inkscape:connector-curvature="0"
           id="path3976" />
        <path
           inkscape:connector-curvature="0"
           style="fill:#d7a55c"
           sodipodi:nodetypes="ccccccszcc"
           d="m 530.2,225.64 -0.54149,2.2994 1.1941,3.4007 0.0993,9.4358 -0.60501,3.4418 0.52546,3.4451 c -0.0822,1.853 0.9263,6.2867 -0.14859,5.6592 -1.8961,-1.1069 -3.0462,-4.5699 -2.9108,-12.938 0.1347,-8.3681 -1.0814,-12.668 0.53595,-14.496 z"
           id="path3978" />
        <path
           inkscape:connector-curvature="0"
           style="fill:#d7a55c"
           sodipodi:nodetypes="ccccszsscc"
           d="m 492.8,170.14 6.1334,0.75778 4.1561,0.77926 3.8789,-0.094 7.843,0.58037 c 2.1893,0.16202 -4.2325,1.5154 -5.732,1.8414 -1.4995,0.32596 -5.6175,-0.45303 -9.0664,-1.2161 -2.3354,-0.51667 -5.4411,0.0946 -7.3471,-0.46108 -4.1426,-1.2076 -7.7877,-3.029 -4.1637,-2.6941 z"
           id="path3964" />
        <path
           d="m 462.77,166.24 -5.603,-0.5608 -4.2178,-0.29986 -2.7494,-0.68265 -7.9948,-0.90467 c -2.1815,-0.24685 2.9921,1.625 4.3601,2.3205 1.3678,0.69548 5.5487,0.9859 9.0785,1.1222 2.39,0.0923 3.8687,0.68756 5.8534,0.63327 4.3133,-0.11798 9.2146,-0.36819 5.6243,-0.96292 z"
           style="fill:#d7a55c"
           sodipodi:nodetypes="ccccszsscc"
           inkscape:connector-curvature="0"
           id="path3966" />
        <path
           inkscape:connector-curvature="0"
           style="fill:#b97c2c"
           sodipodi:nodetypes="ccszsscc"
           d="m 394.72,160.98 c -3.0721,0.16231 -4.0992,0.24476 -6.4536,0.44019 l -5.8048,0.469 c -2.1884,0.1768 0.19566,0.73572 1.662,1.1883 1.4662,0.45256 5.5019,0.0272 9.0034,-0.43909 2.3708,-0.31573 2.5483,0.33103 4.4948,-0.0601 4.2304,-0.85026 6.9686,-1.6636 3.3293,-1.6387 -2.8494,0.20068 -3.3804,0.11898 -6.2311,0.0404 z"
           id="path3968" />
      </g>
    </g>
  </g>
</svg>
